{
  "accessors": [
    {
      "bufferView": 2,
      "componentType": 5126,
      "count": 2678,
      "max": [
        0.35998353362083435,
        1.9902429580688477,
        0.662420392036438
      ],
      "min": [
        -0.35998353362083435,
        -0.0020952224731445313,
        -0.662420392036438
      ],
      "type": "VEC3"
    },
    {
      "bufferView": 2,
      "byteOffset": 32136,
      "componentType": 5126,
      "count": 2678,
      "max": [
        1.0,
        1.0,
        1.0
      ],
      "min": [
        -1.0,
        -1.0,
        -1.0
      ],
      "type": "VEC3"
    },
    {
      "bufferView": 3,
      "componentType": 5126,
      "count": 2678,
      "max": [
        1.0,
        1.0,
        1.0,
        1.0
      ],
      "min": [
        -1.0,
        -1.0,
        -1.0,
        -1.0
      ],
      "type": "VEC4"
    },
    {
      "bufferView": 1,
      "componentType": 5126,
      "count": 2678,
      "max": [
        0.9708390235900879,
        0.9816276431083679
      ],
      "min": [
        0.009599295444786549,
        0.015396779403090477
      ],
      "type": "VEC2"
    },
    {
      "bufferView": 0,
      "componentType": 5125,
      "count": 7128,
      "type": "SCALAR"
    }
  ],
  "asset": {
    "extras": {
      "author": "Tsawodi (https://sketchfab.com/Tsawodi)",
      "license": "CC-BY-4.0 (http://creativecommons.org/licenses/by/4.0/)",
      "source": "https://sketchfab.com/3d-models/metal-wire-shelf-ef69cb7f369d47ba86e9a873b2401bfd",
      "title": "Metal Wire Shelf"
    },
    "generator": "Sketchfab-15.12.0",
    "version": "2.0"
  },
  "bufferViews": [
    {
      "buffer": 0,
      "byteLength": 28512,
      "name": "floatBufferViews",
      "target": 34963
    },
    {
      "buffer": 0,
      "byteLength": 21424,
      "byteOffset": 28512,
      "byteStride": 8,
      "name": "floatBufferViews",
      "target": 34962
    },
    {
      "buffer": 0,
      "byteLength": 64272,
      "byteOffset": 49936,
      "byteStride": 12,
      "name": "floatBufferViews",
      "target": 34962
    },
    {
      "buffer": 0,
      "byteLength": 42848,
      "byteOffset": 114208,
      "byteStride": 16,
      "name": "floatBufferViews",
      "target": 34962
    }
  ],
  "buffers": [
    {
      "byteLength": 157056,
      "uri": "scene.bin"
    }
  ],
  "images": [
    {
      "uri": "textures/Shelf01_baseColor.png"
    },
    {
      "uri": "textures/Shelf01_metallicRoughness.png"
    },
    {
      "uri": "textures/Shelf01_normal.png"
    }
  ],
  "materials": [
    {
      "alphaMode": "MASK",
      "name": "Shelf01",
      "normalTexture": {
        "index": 2
      },
      "pbrMetallicRoughness": {
        "baseColorTexture": {
          "index": 0
        },
        "metallicRoughnessTexture": {
          "index": 1
        }
      }
    }
  ],
  "meshes": [
    {
      "name": "Shelf01Rail_Low.001_Shelf01_0",
      "primitives": [
        {
          "attributes": {
            "NORMAL": 1,
            "POSITION": 0,
            "TANGENT": 2,
            "TEXCOORD_0": 3
          },
          "indices": 4,
          "material": 0,
          "mode": 4
        }
      ]
    }
  ],
  "nodes": [
    {
      "children": [
        1
      ],
      "matrix": [
        1.0,
        0.0,
        0.0,
        0.0,
        0.0,
        2.220446049250313e-16,
        -1.0,
        0.0,
        0.0,
        1.0,
        2.220446049250313e-16,
        0.0,
        0.0,
        0.0,
        0.0,
        1.0
      ],
      "name": "Sketchfab_model"
    },
    {
      "children": [
        2
      ],
      "matrix": [
        1.0,
        0.0,
        0.0,
        0.0,
        0.0,
        0.0,
        1.0,
        0.0,
        0.0,
        -1.0,
        0.0,
        0.0,
        0.0,
        0.0,
        0.0,
        1.0
      ],
      "name": "4e648ceae6264a86a0d4d66004d8fe90.fbx"
    },
    {
      "children": [
        3
      ],
      "name": "RootNode"
    },
    {
      "children": [
        4
      ],
      "matrix": [
        1.0,
        0.0,
        0.0,
        0.0,
        0.0,
        1.0,
        0.0,
        0.0,
        0.0,
        0.0,
        1.0,
        0.0,
        21.1743221282959,
        6.995985984802246,
        41.076690673828125,
        1.0
      ],
      "name": "Shelf01Rail_Low.001"
    },
    {
      "mesh": 0,
      "name": "Shelf01Rail_Low.001_Shelf01_0"
    }
  ],
  "samplers": [
    {
      "magFilter": 9729,
      "minFilter": 9987,
      "wrapS": 10497,
      "wrapT": 10497
    }
  ],
  "scene": 0,
  "scenes": [
    {
      "name": "Sketchfab_Scene",
      "nodes": [
        0
      ]
    }
  ],
  "textures": [
    {
      "sampler": 0,
      "source": 0
    },
    {
      "sampler": 0,
      "source": 1
    },
    {
      "sampler": 0,
      "source": 2
    }
  ]
}
